<!DOCTYPE svg PUBLIC "-//W3C//DTD SVG 1.1//EN" "http://www.w3.org/Graphics/SVG/1.1/DTD/svg11.dtd">

<!-- Uploaded to: SVG Repo, www.svgrepo.com, Transformed by: SVG Repo Mixer Tools -->
<svg fill="#ffffff" version="1.1" id="Capa_1" xmlns="http://www.w3.org/2000/svg" xmlns:xlink="http://www.w3.org/1999/xlink" width="200px" height="120px" viewBox="0 0 220.29 220.29" xml:space="preserve" stroke="#ffffff">

<g id="SVGRepo_bgCarrier" stroke-width="0"/>

<g id="SVGRepo_tracerCarrier" stroke-linecap="round" stroke-linejoin="round"/>

<g id="SVGRepo_iconCarrier"> <g> <g> <path d="M218.425,111.5c-10.431-1.576-16.4,5.856-23.313,14.516c-1.208,1.519-2.378,3.153-3.549,4.788 c-0.105-4.166-1.804-7.963-5.089-11.169c0.785-1.915,0.785-4.146-0.358-6.062c-1.878-3.18-6.36-4.319-9.535-2.444 c-3.296,1.949-4.382,6.228-2.436,9.561c1.239,2.088,3.527,3.396,5.964,3.396c1.244,0,2.479-0.337,3.555-0.986 c0.031-0.021,0.053-0.053,0.084-0.078c4.408,4.561,4.619,10.604,0.569,17.223c-0.337,0.369-0.644,0.785-0.991,1.139 c-0.137,0.127-0.295,0.274-0.422,0.417c-4.282,4.445-9.323,7.589-16.464,7.589c-0.073,0-0.116,0-0.169,0 c-3.575-0.021-6.897-1.107-9.618-3.091c4.081-2.657,7.636-6.138,10.431-10.314c5.168-7.763,7.108-16.986,5.601-26.127 c2.921-0.427,7.098-1.783,7.436-8.306c0.031-0.665-0.042-1.318-0.121-2.02c-0.222-1.69-0.443-3.467,2.004-7.335 c0.422-0.662,0.311-1.506-0.079-2.191c-0.375-0.696-1.239-1.128-2.036-1.128c-0.928,0-3.597,0.145-6.359,1.685 c-0.248-0.562-0.507-1.021-0.749-1.474c-0.791-1.484-1.234-2.323-0.78-3.931c0.211-0.778-0.011-1.593-0.569-2.139 c-0.58-0.562-1.414-0.762-2.173-0.498c-0.18,0.065-4.472,1.498-6.455,5.444c-0.627,1.237-0.96,2.566-0.991,3.947 c-2.879-0.593-6.291,0.169-6.523,0.253c-0.723,0.248-1.25,0.854-1.418,1.608c-0.158,0.741,0.095,1.503,0.653,2.025 c3.375,3.106,3.607,4.867,3.839,6.584c0.105,0.707,0.201,1.35,0.401,1.982c1.318,4.129,3.913,6.21,7.688,6.21 c0.664,0,1.287-0.113,1.92-0.206c1.392,8.129-0.322,16.329-4.884,23.232c-2.637,3.934-6.096,7.088-10.014,9.503 c-2.959-3.797-4.372-8.828-3.813-14.091c0.781-1.925,1.213-3.939,1.435-5.99c1.571-0.76,4.894-2.722,5.511-6.25 c0.512-2.9-0.996-5.853-4.714-9.038c-1.271-1.065-3.649-3.04-4.667-5.985c-0.312-0.82-1.045-1.408-1.92-1.453 c-0.896,0-1.688,0.443-2.078,1.239c-0.559,1.219-5.494,12.079-1.682,18.133c0.833,1.329,2.437,2.806,5.236,3.417 c-0.391,2.827-1.382,5.59-3.059,8.048c-2.922,4.239-7.361,7.14-12.498,8.174c-3.977,0.812-8.058,0.042-11.433-2.142 c-2.362-1.523-4.161-3.659-5.284-6.106c-0.433-1.181-0.865-2.362-1.118-3.617c0-0.011-0.01-0.032-0.021-0.048 c-0.928-5.996,3.154-11.775,9.334-12.999c4.841-1.002,9.555,2.036,10.478,6.719c0.696,3.512-1.692,6.961-5.331,7.688 c-1.176,0.242-1.92,1.382-1.688,2.558c0.232,1.16,1.35,1.903,2.542,1.683c5.97-1.203,9.893-6.93,8.732-12.772 c-1.424-7.017-8.405-11.544-15.577-10.112c-1.625,0.33-3.091,0.939-4.485,1.685c3.81-3.525,8.388-9.25,8.239-16.463 c-0.089-3.618-2.373-6.811-4.408-9.604c-1.561-2.159-3.193-4.4-2.935-5.829c0.169-1.05,0.878-1.422,2.587-2.065 c1.413-0.541,3.76-1.424,3.712-4.005c-0.11-4.656-6.038-8.176-14.291-8.176c-0.005,0-0.016,0-0.026,0 c-5.075,0.103-9.584,1.685-12.047,4.25c-1.279,1.339-1.943,2.882-1.912,4.503c0.071,2.576,2.447,3.365,3.876,3.839 c1.724,0.566,2.452,0.917,2.673,1.943c0.314,1.432-1.226,3.726-2.7,5.961c-1.912,2.89-4.082,6.168-4.01,9.785 c0.171,9.94,9.115,16.638,12.624,18.908v0.97c-2.296-2.813-5.513-4.936-9.357-5.719c-3.544-0.712-7.119,0-10.093,1.983 c-2.864,1.912-4.817,4.823-5.482,8.145c-0.562,2.795,0.011,5.643,1.608,8.036c1.648,2.469,4.166,4.166,7.098,4.746 c1.197,0.211,2.304-0.543,2.542-1.688c0.232-1.181-0.53-2.32-1.685-2.552c-1.804-0.349-3.343-1.393-4.364-2.9 c-0.955-1.435-1.29-3.122-0.959-4.799c0.438-2.204,1.711-4.14,3.633-5.4c2.015-1.339,4.446-1.83,6.858-1.329 c6.188,1.234,10.26,7.014,9.337,12.999c-0.006,0.026-0.016,0.037-0.021,0.059c-0.248,1.233-0.675,2.389-1.097,3.56 c-2.824,6.091-9.708,9.708-16.751,8.289c-8.396-1.682-14.418-8.385-15.546-16.21c2.782-0.617,4.379-2.104,5.21-3.417 c3.807-6.044-1.105-16.936-1.685-18.141c-0.367-0.789-1.197-1.203-2.067-1.237c-0.876,0.044-1.635,0.606-1.917,1.448 c-1.016,2.911-3.283,4.838-4.979,6.254c-3.44,2.922-4.915,5.875-4.411,8.775c0.604,3.527,3.947,5.511,5.519,6.26 c0.156,1.466,0.464,2.879,0.907,4.271c-0.335,0.422-0.514,0.985-0.443,1.55c0.572,5.157-0.773,10.083-3.554,13.88 c-3.649-2.362-6.853-5.41-9.337-9.134c-4.611-6.871-6.302-15.093-4.901-23.222c0.635,0.098,1.268,0.206,1.938,0.206 c3.763,0,6.36-2.097,7.684-6.204c0.206-0.633,0.314-1.287,0.396-1.994c0.232-1.695,0.464-3.467,3.85-6.571 c0.562-0.524,0.789-1.287,0.648-2.038c-0.158-0.749-0.693-1.35-1.421-1.603c-0.232-0.092-3.649-0.875-6.528-0.253 c-0.032-1.397-0.351-2.721-0.989-3.952c-1.988-3.937-6.291-5.379-6.468-5.445c-0.757-0.253-1.595-0.063-2.162,0.499 c-0.572,0.556-0.793,1.381-0.577,2.138c0.453,1.619,0.034,2.442-0.772,3.937c-0.243,0.454-0.506,0.939-0.749,1.474 c-2.803-1.551-5.622-1.608-6.795-1.685c-0.759,0.061-1.435,0.509-1.769,1.189c-0.34,0.675-0.314,1.479,0.108,2.136 c2.455,3.895,2.223,5.646,2.015,7.346c-0.098,0.707-0.158,1.355-0.121,2.02c0.334,6.507,4.487,7.868,7.425,8.295 c-1.511,9.136,0.422,18.375,5.595,26.133c2.663,3.991,6.022,7.346,9.883,9.967c-2.808,2.193-6.241,3.428-10.012,3.448 c-0.071,0-0.113,0-0.166,0c-7.151,0-12.185-3.143-16.477-7.594c-0.129-0.137-0.274-0.284-0.411-0.411 c-0.335-0.354-0.651-0.76-0.981-1.129c-4.071-6.634-3.868-12.688,0.562-17.229c0.037,0.021,0.053,0.063,0.098,0.09 c1.062,0.628,2.299,0.971,3.536,0.971c2.436,0,4.73-1.297,5.961-3.396c0.967-1.603,1.237-3.485,0.778-5.283 c-0.464-1.793-1.598-3.299-3.196-4.251c-3.193-1.896-7.641-0.767-9.553,2.437c-0.952,1.593-1.215,3.47-0.757,5.273 c0.082,0.295,0.28,0.527,0.382,0.791c-3.283,3.206-4.999,7.014-5.086,11.158c-1.176-1.624-2.35-3.264-3.547-4.777 c-6.929-8.659-12.946-16.118-23.309-14.515c-1.191,0.179-1.985,1.287-1.803,2.462c0.179,1.179,1.297,1.959,2.458,1.812 c6.096-0.96,10.223,2.215,15.396,8.227c-4.52-1.176-9.115-0.369-13.418,2.589c-0.989,0.686-1.237,2.025-0.557,3.006 c0.691,0.997,2.036,1.24,3.014,0.555c5.938-4.104,12.485-2.827,18.418,3.543c0.092,0.096,0.195,0.121,0.303,0.201 c0.161,0.242,0.34,0.464,0.53,0.706c0.124,0.174,0.269,0.364,0.398,0.56c-0.783-0.116-1.571-0.169-2.381-0.116 c-0.098-0.338-0.108-0.686-0.264-1.019c-0.923-1.829-2.71-2.91-3.981-3.143c-14.515-2.679-15.573,20.492-15.604,21.421 c-0.034,0.786,0.366,1.529,1.042,1.936c0.334,0.2,0.728,0.311,1.107,0.311c0.372,0,0.772-0.11,1.107-0.311 c3.86-2.289,6.127-2.806,8.342-2.854c5.967-0.163,11.436-0.807,12.712-6.792c0.361-1.762,0.211-3.133-0.129-4.229 c2.552,1.261,5.01,3.607,7.731,6.528c0.232,0.243,0.524,0.412,0.823,0.544c4.385,3.712,9.724,6.296,16.761,6.296 c0.063,0,0.124,0,0.198,0c5.315-0.042,10.135-2.035,13.879-5.511c2.943,1.482,6.085,2.601,9.389,3.265 c1.943,0.38,3.9,0.569,5.801,0.569c10.687,0,20.451-5.874,25.655-15.019v9.914c0,1.191,0.984,2.151,2.149,2.151 c1.199,0,2.159-0.98,2.159-2.151v-8.859c5.342,8.554,14.815,13.964,25.089,13.964c1.908,0,3.854-0.189,5.801-0.569 c3.068-0.611,6.001-1.646,8.774-2.984c3.702,3.27,8.385,5.168,13.553,5.21c0.074,0,0.127,0,0.2,0 c7.046,0,12.372-2.584,16.76-6.297c0.311-0.11,0.58-0.284,0.812-0.538c2.731-2.91,5.189-5.263,7.741-6.518 c-0.337,1.086-0.511,2.457-0.132,4.219c1.261,5.97,6.74,6.623,12.715,6.792c2.215,0.063,4.482,0.56,8.353,2.848 c0.338,0.211,0.733,0.316,1.098,0.316c0.379,0,0.774-0.116,1.107-0.316c0.686-0.39,1.075-1.149,1.044-1.93 c-0.032-0.929-1.14-24.152-15.62-21.421c-1.266,0.242-3.059,1.318-3.977,3.153c-0.147,0.327-0.158,0.665-0.253,1.013 c-0.812-0.042-1.613,0-2.378,0.116c0.121-0.18,0.269-0.369,0.396-0.56c0.169-0.242,0.348-0.464,0.538-0.717 c0.095-0.079,0.189-0.116,0.273-0.189c5.959-6.387,12.498-7.646,18.426-3.544c0.997,0.686,2.336,0.442,3.021-0.554 c0.675-0.986,0.433-2.336-0.564-3.012c-4.303-2.974-8.896-3.76-13.426-2.584c5.157-6.021,9.276-9.218,15.394-8.236 c1.128,0.168,2.294-0.607,2.468-1.807C220.408,112.792,219.591,111.685,218.425,111.5z M181.458,119.371 c-1.229,0.728-2.89,0.311-3.617-0.896c-0.743-1.261-0.332-2.89,0.918-3.628c0.411-0.243,0.875-0.364,1.35-0.364 c0.938,0,1.782,0.485,2.278,1.292C183.114,117.009,182.697,118.633,181.458,119.371z M168.744,105.987 c-0.717,0.114-1.503,0.258-2.315,0.258c-1.233,0-2.604-0.248-3.56-3.222c-0.121-0.391-0.174-0.799-0.231-1.242 c-0.2-1.463-0.454-3.317-2.125-5.719c1.012,0.166,1.982,0.524,2.89,1.031c0.77,0.432,1.74,0.372,2.437-0.19 c0.695-0.562,0.97-1.495,0.69-2.365c-1.007-3.029-0.037-4.999,1.229-6.22c0.29,1.06,0.775,1.954,1.197,2.776 c0.554,1.015,1.05,1.991,1.239,3.283c0.11,0.793,0.664,1.468,1.445,1.743c0.77,0.277,1.629,0.082,2.204-0.496 c0.785-0.767,1.613-1.273,2.404-1.648c-0.996,2.745-0.754,4.606-0.559,6.064c0.068,0.438,0.116,0.839,0.116,1.247 c-0.201,3.75-1.825,4.09-4.937,4.391L168.744,105.987z M45.338,101.333c-0.021-0.411,0.042-0.807,0.108-1.247 c0.179-1.463,0.422-3.322-0.562-6.075c0.789,0.361,1.643,0.896,2.407,1.661c0.57,0.562,1.458,0.757,2.194,0.493 c0.783-0.267,1.329-0.941,1.453-1.745c0.176-1.29,0.69-2.273,1.236-3.294c0.433-0.799,0.907-1.695,1.192-2.781 c1.266,1.236,2.23,3.214,1.237,6.228c-0.285,0.841-0.011,1.793,0.688,2.365c0.707,0.562,1.685,0.63,2.444,0.188 c0.896-0.527,1.87-0.862,2.88-1.031c-1.669,2.392-1.912,4.25-2.123,5.725c-0.053,0.438-0.108,0.849-0.221,1.236 c-0.96,2.977-2.355,3.225-3.57,3.225c-0.793,0-1.587-0.132-2.315-0.256l-2.106-0.279C47.162,105.415,45.527,105.08,45.338,101.333 z M37.789,115.774c0.49-0.807,1.339-1.292,2.283-1.292c0.469,0,0.936,0.121,1.35,0.364c0.606,0.358,1.026,0.928,1.21,1.613 c0.185,0.675,0.076,1.397-0.293,2.004c-0.723,1.207-2.376,1.65-3.607,0.907c-0.609-0.354-1.042-0.929-1.218-1.614 C37.335,117.082,37.438,116.37,37.789,115.774z M24.336,143.692c-0.414,1.951-1.203,3.153-8.617,3.375 c-2.292,0.058-4.391,0.532-6.74,1.539c0.789-5.146,2.974-13.615,8.733-13.615c0.43,0,0.873,0.042,1.305,0.115 c0.206,0.063,0.686,0.412,0.907,0.823c-2.191,0.844-4.545,2.32-7.063,4.641c-0.873,0.802-0.928,2.173-0.113,3.048 c0.802,0.87,2.167,0.928,3.04,0.105c2.22-2.046,4.182-3.291,6.017-3.934c0.556,0.105,1.659,0.422,2.215,1.213 C24.489,141.646,24.587,142.542,24.336,143.692z M70.236,116.017c-0.124,0.633-0.108,1.266-0.177,1.904 c-0.611-0.543-1.139-1.182-1.263-1.904c-0.211-1.25,0.836-2.939,3.282-5.022c0.907-0.768,2.257-1.912,3.504-3.496 c1.097,3.596,1.701,7.738,0.351,9.869c-0.15,0.269-0.615,0.844-1.635,1.255c0.068-0.58,0.047-1.171,0.15-1.762 c0.243-1.17-0.53-2.31-1.685-2.541C71.57,114.087,70.468,114.847,70.236,116.017z M78.062,147.246 c-2.565-0.512-4.967-1.408-7.28-2.479c2.08-3.006,3.43-6.486,3.916-10.257c3.425,4.467,8.398,7.831,14.402,9.028 c1.313,0.269,2.618,0.385,3.91,0.385c1.402,0,2.763-0.2,4.092-0.485C91.712,147.067,84.952,148.628,78.062,147.246z M111.693,99.994c-0.258-0.114-0.546-0.164-0.838-0.164c-0.3,0-0.583,0.066-0.852,0.174c-1.237-0.361-2.165-1.463-2.188-2.813 c-0.047-1.685,1.292-3.071,3.035-3.111c1.685,0,3.024,1.308,3.035,2.982c0.023,0.814-0.285,1.587-0.841,2.175 C112.661,99.619,112.194,99.852,111.693,99.994z M113.012,104.049c1.171-0.366,2.268-0.917,3.138-1.824 c1.36-1.427,2.088-3.28,2.052-5.255c-0.082-4.05-3.307-7.214-7.518-7.214c-4.061,0.087-7.291,3.457-7.214,7.513 c0.063,3.222,2.268,5.864,5.215,6.792v5.497c-3.457-2.721-8.192-7.538-8.3-13.645c-0.048-2.292,1.664-4.841,3.296-7.314 c1.959-2.979,3.994-6.041,3.319-9.255c-0.772-3.546-3.752-4.556-5.534-5.142c-0.253-0.09-0.578-0.188-0.836-0.301 c0.119-0.361,0.393-0.717,0.63-0.962c1.638-1.701,5.179-2.845,9.435-2.922c5.303,0,8.796,1.906,9.407,3.488 c-0.258,0.113-0.563,0.243-0.812,0.33c-1.764,0.675-4.717,1.782-5.334,5.379c-0.562,3.219,1.613,6.193,3.704,9.104 c1.74,2.402,3.544,4.894,3.597,7.161c0.116,6.415-4.87,11.609-8.229,14.386L113.012,104.049L113.012,104.049z M145.167,117.346 c-1.351-2.136-0.733-6.278,0.363-9.869c1.34,1.685,2.811,2.916,3.818,3.771c2.136,1.814,3.185,3.504,2.974,4.76 c-0.11,0.706-0.633,1.36-1.249,1.893c-0.074-0.617-0.059-1.239-0.18-1.883c-0.232-1.17-1.36-1.925-2.542-1.682 c-1.176,0.237-1.93,1.376-1.698,2.547c0.116,0.574,0.116,1.182,0.169,1.751C145.794,118.2,145.335,117.62,145.167,117.346z M143.058,147.246c-6.855,1.371-13.616-0.179-18.995-3.775c1.308,0.279,2.637,0.453,3.986,0.453c1.303,0,2.632-0.121,3.955-0.385 c5.427-1.081,10.125-3.96,13.627-8.079c0.591,3.564,1.94,6.861,3.986,9.672C147.55,146.044,145.356,146.793,143.058,147.246z M196.14,141.05c0.569-0.785,1.698-1.129,2.226-1.218c1.813,0.633,3.786,1.882,5.99,3.929c0.859,0.807,2.247,0.775,3.043-0.111 c0.807-0.875,0.765-2.246-0.11-3.043c-2.521-2.336-4.842-3.797-7.062-4.646c0.222-0.411,0.701-0.775,0.865-0.812 c0.464-0.096,0.917-0.127,1.334-0.127c5.769,0,7.968,8.469,8.754,13.616c-2.353-1.019-4.456-1.482-6.75-1.54 c-7.415-0.217-8.206-1.424-8.617-3.375C195.591,142.542,195.696,141.656,196.14,141.05z"/> </g> </g> </g>

</svg>